Coordinates
version=1
nRows=20
nColumns=30
inDegrees=yes

Units are S.I. units (second, meters, Newtons, ...)
Angles are in degrees.

endheader
time	floatyaw	floatroll	floatpitch	floatx	floaty	floatz	pro_sup_l	deviation_l	flexion_l	cmc_flexion_l	cmc_abduction_l	mp_flexion_l	ip_flexion_l	2mcp_flexion_l	2mcp_abduction_l	2pm_flexion_l	2md_flexion_l	3mcp_flexion_l	3mcp_abduction_l	3pm_flexion_l	3md_flexion_l	4mcp_flexion_l	4mcp_abduction_l	4pm_flexion_l	4md_flexion_l	5mcp_flexion_l	5mcp_abduction_l	5pm_flexion_l	5md_flexion_l
-0.995000	-1.089067	-4.156866	93.821839	-0.010024	-0.265286	-0.003540	89.069829	1.066495	-2.172306	23.792352	3.523277	-17.921198	-28.431605	20.566841	5.656760	30.486036	20.439553	10.047018	4.334380	33.749936	21.829061	-0.720923	-3.960713	50.596648	33.044144	-19.976628	-7.263388	60.071555	49.426791
-0.985000	-1.089067	-4.156866	93.821839	-0.010031	-0.265304	-0.003532	89.062137	1.061168	-2.174261	23.779153	3.531775	-17.916840	-28.421984	20.575904	5.660735	30.456054	20.474597	10.050460	4.324024	33.713045	21.866654	-0.736815	-3.954714	50.593300	33.077188	-20.011346	-7.279107	60.081042	49.438078
-0.975000	-1.089067	-4.156866	93.821839	-0.010035	-0.265317	-0.003532	89.050855	1.056495	-2.173233	23.766555	3.549014	-17.915530	-28.419591	20.582986	5.663111	30.430066	20.499189	10.052811	4.314086	33.681405	21.896940	-0.754737	-3.947019	50.600972	33.109218	-20.058664	-7.298132	60.102063	49.463798
-0.965000	-1.089067	-4.156866	93.821839	-0.010039	-0.265324	-0.003536	89.042334	1.053882	-2.170520	23.758105	3.569287	-17.917946	-28.425301	20.589215	5.663337	30.408864	20.508753	10.055223	4.305505	33.657004	21.913582	-0.767480	-3.938462	50.616399	33.129127	-20.108967	-7.319772	60.128087	49.496295
-0.955000	-1.089067	-4.156866	93.821839	-0.010042	-0.265323	-0.003543	89.039876	1.054149	-2.168472	23.757207	3.587876	-17.925262	-28.439081	20.596581	5.661502	30.392471	20.503015	10.059766	4.298525	33.641052	21.914008	-0.768929	-3.929464	50.634947	33.128422	-20.155005	-7.343356	60.155724	49.526965
-0.945000	-1.089067	-4.156866	93.821839	-0.010043	-0.265317	-0.003553	89.042973	1.057393	-2.168890	23.765962	3.602187	-17.938543	-28.460203	20.607310	5.658259	30.378974	20.485621	10.068017	4.292998	33.633739	21.900129	-0.757308	-3.920152	50.652395	33.105249	-20.192692	-7.367609	60.184373	49.548849
-0.935000	-1.089067	-4.156866	93.821839	-0.010043	-0.265310	-0.003566	89.048941	1.063086	-2.172145	23.784072	3.611792	-17.957686	-28.486991	20.622567	5.654378	30.365361	20.462319	10.080014	4.288979	33.634190	21.876964	-0.736355	-3.910888	50.666437	33.065739	-20.220283	-7.390663	60.214004	49.558653
-0.925000	-1.089067	-4.156866	93.821839	-0.010040	-0.265303	-0.003583	89.055258	1.070364	-2.177409	23.808529	3.617750	-17.980591	-28.516436	20.641137	5.650324	30.350186	20.438752	10.094034	4.287120	33.640998	21.850236	-0.713908	-3.902700	50.677712	33.021680	-20.237518	-7.410670	60.244136	49.556974
-0.915000	-1.089067	-4.156866	93.821839	-0.010035	-0.265298	-0.003602	89.060959	1.078371	-2.183488	23.834541	3.621391	-18.003187	-28.544296	20.658918	5.646212	30.335915	20.419099	10.107091	4.288525	33.653038	21.824639	-0.698448	-3.897081	50.689652	32.985365	-20.245776	-7.426508	60.274963	49.546297
-0.905000	-1.089067	-4.156866	93.821839	-0.010029	-0.265295	-0.003623	89.066554	1.086557	-2.189517	23.857236	3.623053	-18.020420	-28.565919	20.669852	5.642142	30.328829	20.406088	10.115796	4.294098	33.669982	21.803717	-0.695106	-3.895263	50.706735	32.964298	-20.248738	-7.438194	60.308813	49.528302
-0.895000	-1.089067	-4.156866	93.821839	-0.010022	-0.265296	-0.003642	89.073121	1.094799	-2.195268	23.873389	3.621702	-18.027949	-28.577783	20.668229	5.638651	30.336247	20.401832	10.117355	4.303830	33.692226	21.790904	-0.702969	-3.897561	50.731732	32.958729	-20.251858	-7.446988	60.349380	49.502770
-0.885000	-1.089067	-4.156866	93.821839	-0.010013	-0.265299	-0.003660	89.081567	1.103232	-2.201230	23.882693	3.615942	-18.024067	-28.579596	20.651377	5.636947	30.362790	20.408315	10.110747	4.316602	33.720152	21.790103	-0.715048	-3.903161	50.763411	32.963237	-20.259771	-7.455235	60.398344	49.469085
-0.875000	-1.089067	-4.156866	93.821839	-0.010000	-0.265307	-0.003677	89.092423	1.111855	-2.208525	23.888190	3.605831	-18.010899	-28.575712	20.621277	5.638702	30.407951	20.426722	10.097689	4.330662	33.753050	21.804482	-0.721238	-3.910398	50.796207	32.970835	-20.273167	-7.465714	60.452045	49.428991
-0.865000	-1.089067	-4.156866	93.821839	-0.009985	-0.265318	-0.003692	89.105801	1.120150	-2.218386	23.895172	3.594084	-17.993789	-28.573907	20.584009	5.645383	30.466248	20.455946	10.082586	4.344431	33.788399	21.833850	-0.713172	-3.917294	50.822529	32.976743	-20.288038	-7.480399	60.501712	49.388179
-0.855000	-1.089067	-4.156866	93.821839	-0.009968	-0.265331	-0.003704	89.121019	1.127048	-2.231117	23.908340	3.585679	-17.978645	-28.580908	20.547243	5.657333	30.529507	20.491591	10.070871	4.356963	33.822211	21.872710	-0.688647	-3.922126	50.836656	32.979773	-20.298665	-7.499257	60.537804	49.355088
-0.845000	-1.089067	-4.156866	93.821839	-0.009952	-0.265344	-0.003710	89.135961	1.131253	-2.245110	23.928327	3.585848	-17.968574	-28.596966	20.517261	5.673087	30.589600	20.526483	10.066327	4.367738	33.850412	21.910990	-0.653021	-3.923758	50.837737	32.981106	-20.302465	-7.520036	60.555035	49.337452
-0.835000	-1.089067	-4.156866	93.821839	-0.009940	-0.265352	-0.003711	89.147095	1.131752	-2.256820	23.950115	3.597205	-17.962204	-28.613847	20.497204	5.689353	30.640071	20.552478	10.069110	4.376010	33.870349	21.937365	-0.616355	-3.921678	50.829643	32.981713	-20.302794	-7.539292	60.553923	49.338854
-0.825000	-1.089067	-4.156866	93.821839	-0.009933	-0.265353	-0.003707	89.151036	1.128264	-2.262260	23.965624	3.617342	-17.955352	-28.619454	20.487265	5.701987	30.676505	20.562606	10.076102	4.380437	33.881346	21.943201	-0.587512	-3.915900	50.817580	32.980364	-20.306796	-7.553882	60.538021	49.357559
-0.815000	-1.089067	-4.156866	93.821839	-0.009933	-0.265344	-0.003697	89.147151	1.121416	-2.259447	23.969796	3.638720	-17.945252	-28.607450	20.486104	5.707719	30.696611	20.552915	10.083569	4.379538	33.884123	21.925184	-0.568771	-3.906987	50.803961	32.973792	-20.319324	-7.561929	60.509930	49.388159
-0.805000	-1.089067	-4.156866	93.821839	-0.009939	-0.265327	-0.003680	89.138986	1.112456	-2.250048	23.965607	3.651861	-17.934047	-28.584695	20.491983	5.705779	30.700628	20.523970	10.089900	4.372793	33.879792	21.886064	-0.555064	-3.896233	50.786841	32.959075	-20.338093	-7.562891	60.470002	49.424514
